<?xml version="1.0" encoding="utf-8"?>
<!-- Generator: Adobe Illustrator 19.2.0, SVG Export Plug-In . SVG Version: 6.00 Build 0)  -->
<svg version="1.1" id="Capa_1" xmlns="http://www.w3.org/2000/svg" xmlns:xlink="http://www.w3.org/1999/xlink" x="0px" y="0px"
	 viewBox="0 0 275 170" style="enable-background:new 0 0 275 170;" xml:space="preserve">
<g>
	<path d="M26.4,71.9l0.1,0.1c0.1,0.1,0.3,0.3,0.5,0.4c0.2,0.2,0.5,0.4,0.8,0.6s0.7,0.5,1.3,0.7c0.5,0.2,1.2,0.3,1.9,0.1
		c0.4-0.1,0.7-0.3,1-0.6c0.3-0.2,0.6-0.5,0.8-0.8c0.5-0.5,0.9-1.3,1.2-1.9c0.3-0.7,0.6-1.4,0.8-2.1c0.3-0.7,0.5-1.4,0.7-2.1
		s0.4-1.4,0.6-2c0.2-0.7,0.3-1.3,0.5-1.9c0.1-0.6,0.3-1.2,0.4-1.7c0.3-1.1,0.5-1.9,0.6-2.6c0.2-0.6,0.3-1,0.3-1l-11,1.4
		c0,0,0.2,0.3,0.5,0.8s0.7,1.2,1.1,2.1c0.2,0.4,0.4,0.9,0.6,1.4s0.4,1,0.6,1.6s0.4,1.1,0.6,1.7s0.3,1.2,0.5,1.8
		c0.1,0.6,0.2,1.2,0.3,1.8c0,0.6,0.1,1.1,0,1.6s-0.2,0.9-0.5,1.1c-0.3,0.3-0.7,0.4-1.1,0.3c-0.4,0-0.8-0.2-1.2-0.4
		c-0.3-0.2-0.6-0.4-0.8-0.5c-0.2-0.2-0.4-0.3-0.5-0.4c0-0.1-0.1-0.1-0.1-0.1l0,0l0,0L26.4,71.9C26.3,71.8,26.3,71.8,26.4,71.9
		C26.4,71.8,26.4,71.9,26.4,71.9z"/>
	<path d="M257.6,45.2c0,0,0.1,0.2,0.2,0.5c0.1,0.2,0.1,0.4,0.2,0.6c0,0.1,0.1,0.2,0.1,0.4c0,0.1,0.1,0.3,0.1,0.4
		c0.1,0.3,0.2,0.6,0.3,0.9c0.1,0.3,0.1,0.7,0.2,1c0,0.1,0,0.2,0.1,0.3v0.3c0,0.2,0,0.4,0.1,0.5c0.1,0.4,0,0.7,0.1,1.1
		c0,0.2,0,0.4,0,0.5c0,0.2,0,0.4,0,0.5c0,0.2-0.1,0.3-0.1,0.5s-0.1,0.3-0.1,0.5s-0.1,0.3-0.1,0.5c-0.1,0.2-0.1,0.3-0.2,0.4
		c0,0.2-0.1,0.3-0.2,0.4s-0.1,0.3-0.2,0.4c-0.1,0.2-0.3,0.5-0.4,0.6c-0.1,0.2-0.2,0.3-0.3,0.4c-0.1,0.1-0.2,0.2-0.1,0.2l-0.1,0.1
		l2.5,4.7c0,0,0,0,0.2-0.1s0.4-0.2,0.7-0.4c0.3-0.1,0.6-0.3,0.9-0.6c0.4-0.2,0.7-0.5,1.1-0.8c0.2-0.2,0.4-0.3,0.6-0.5
		s0.4-0.4,0.6-0.6s0.4-0.4,0.6-0.7c0.2-0.2,0.4-0.5,0.6-0.7s0.4-0.5,0.5-0.8c0.2-0.3,0.3-0.6,0.5-0.8c0.1-0.3,0.3-0.6,0.4-0.9
		s0.3-0.6,0.4-0.9c0.2-0.6,0.5-1.2,0.7-1.9c0.1-0.3,0.2-0.6,0.3-0.9c0-0.2,0.1-0.3,0.1-0.5c0-0.1,0.1-0.3,0.1-0.4
		c0.1-0.6,0.2-1.2,0.3-1.7c0.1-0.5,0.1-1.1,0.1-1.5c0-0.2,0-0.5,0.1-0.7c0-0.2,0-0.4,0-0.6c0-0.4,0-0.7,0-1c0-0.5,0-0.9,0-0.9
		L257.6,45.2z"/>
	<path d="M263.5,63.8c-1,0.2-2.3,0.4-3.7,0.7c-1.5,0.3-3.1,0.7-5,1.1s-3.9,0.9-6.2,1.4c-1.8,0.4-3.6,0.9-5.6,1.4
		c0-0.1-0.1-0.3-0.1-0.5c-0.1-0.4-0.3-0.9-0.5-1.6s-0.5-1.5-0.8-2.5c-0.3-0.9-0.7-2-1.1-3.2c-0.4-1.2-0.9-2.4-1.5-3.7
		s-1.2-2.7-1.9-4c-0.3-0.7-0.7-1.4-1.1-2.1c-0.4-0.7-0.8-1.4-1.2-2.1s-0.9-1.4-1.3-2.1l-0.7-1.1l-0.3-0.4c0.2-0.3,0.3-0.7,0.5-1
		c0.8-1.8,1.5-3.5,2.2-5.1c0.7-1.7,1.3-3.3,1.8-4.8c0.3-0.8,0.5-1.5,0.8-2.3c0.1-0.4,0.2-0.7,0.4-1.1c0.1-0.4,0.2-0.7,0.3-1.1
		c0.6-2,1.1-3.8,1.5-5.5c0.4-0.1,0.8-0.2,1.3-0.3c0.7-0.1,1.3-0.3,1.9-0.4c2.6-0.6,4.9-1.1,7.2-1.6c2.2-0.4,4.3-0.9,6.1-1.2
		c1.8-0.4,3.5-0.7,4.9-0.9c1.4-0.2,2.6-0.5,3.6-0.6c2-0.3,3-0.5,3-0.5l-1.3-7.7c0,0-1.1,0.2-3.1,0.6c-1,0.2-2.3,0.4-3.7,0.7
		c-1.5,0.3-3.1,0.7-5,1.1c-1.9,0.4-3.9,0.9-6.2,1.4c-2.2,0.6-4.6,1.2-7.2,1.8c-0.1,0-0.3,0.1-0.4,0.1c0,0,0-0.1,0-0.2
		c0-0.2,0-0.4,0-0.6c0-0.1,0-0.2,0-0.2c0-0.1,0-0.1,0-0.2c0-0.2,0-0.4,0-0.5c0-0.3,0-0.4,0-0.4l-10,0.9c0,0,0,0.1,0.1,0.4
		c0,0.1,0,0.3,0.1,0.5c0,0.1,0,0.1,0,0.2s0,0.1,0,0.1c0,0.1,0,0.1,0,0.2s0,0.3,0,0.5c0,0.1,0,0.2,0,0.4c0,0.2,0,0.3,0,0.5
		c0,0.3,0,0.7-0.1,1c-2.2,0.6-4.4,1.3-6.7,1.9c-1.6,0.5-3.2,0.9-4.8,1.4s-3.3,1-5,1.5s-3.4,1-5.1,1.6c-1.7,0.6-3.5,1.1-5.3,1.7
		s-3.6,1.2-5.4,1.7c-1.8,0.6-3.7,1.2-5.5,1.9c-1.9,0.6-3.7,1.2-5.6,1.9c-1.9,0.7-3.8,1.3-5.7,2c-3.8,1.3-7.7,2.7-11.7,4.1
		c0-0.1,0-0.3,0.1-0.4c0.1-0.6,0.1-1.3,0.2-1.9c0.1-1.3,0.3-2.5,0.4-3.7c0.1-0.6,0.1-1.2,0.2-1.8c0-0.3,0.1-0.6,0.1-0.9
		s0-0.6,0.1-0.9c0.1-1.1,0.2-2.2,0.2-3.3c0.1-1,0.1-2.1,0.2-3c0.1-1,0.1-1.9,0.2-2.7c0.1-1.7,0.1-3.2,0.1-4.4
		c0.1-2.5,0.1-3.9,0.1-3.9l-11.1,0.2c0,0,0,1.3,0.1,3.7c0,0.2,0,0.3,0,0.5c-0.4,1.2-0.9,2.5-1.5,3.9s-1.2,3-1.9,4.6
		s-1.5,3.3-2.3,5.1c-0.8,1.7-1.8,3.5-2.8,5.3s-2.1,3.5-3.2,5.3l-0.8,1.3c-0.3,0.4-0.6,0.8-0.9,1.3c-0.3,0.4-0.6,0.8-0.9,1.3
		c-0.3,0.4-0.6,0.8-0.9,1.2c-0.8,1.1-1.7,2.1-2.5,3.1c-3.1,1.2-6.2,2.4-9.2,3.5c-2.1,0.8-4.3,1.7-6.4,2.5c0.1-0.6,0.2-1.2,0.2-1.8
		c0.1-0.6,0.1-1.3,0.2-1.9c0.1-1.3,0.3-2.5,0.4-3.7c0.1-0.6,0.1-1.2,0.2-1.8c0-0.3,0.1-0.6,0.1-0.9s0-0.6,0.1-0.9
		c0.1-1.1,0.2-2.2,0.2-3.3c0.1-1,0.1-2.1,0.2-3c0.1-1,0.1-1.9,0.2-2.7c0.1-1.7,0.1-3.2,0.1-4.4c0.1-2.5,0.1-3.9,0.1-3.9l-11,0.2
		c0,0,0,1.3,0.1,3.7c0,0.2,0,0.3,0,0.5c-0.4,1.2-0.9,2.5-1.5,3.9s-1.2,3-1.9,4.6s-1.5,3.3-2.3,5.1c-0.8,1.7-1.8,3.5-2.8,5.3
		s-2.1,3.5-3.2,5.3l-0.8,1.3c-0.3,0.4-0.6,0.8-0.9,1.3c-0.3,0.4-0.6,0.8-0.9,1.3c-0.3,0.4-0.6,0.8-0.9,1.2c-1.2,1.6-2.5,3.1-3.8,4.6
		c-0.6,0.7-1.3,1.3-1.9,1.9c-3.7,1.5-7.4,3-11,4.5c-4.9,2-9.6,4-14.3,6l-1.7,0.2c0,0,0,0.2,0.1,0.5l0,0l-0.7,0.1
		c0,0-0.1,0.2-0.3,0.6c-1.7,0.7-3.3,1.4-4.9,2.1c-1.8,0.8-3.6,1.5-5.4,2.3c0-0.3,0-0.5,0-0.5L49,84c0,0,0.1,0.7,0.3,2
		c0.1,0.5,0.2,1.1,0.3,1.8c-1.2,0.5-2.3,1-3.4,1.5c-2.8,1.2-5.5,2.4-8.1,3.6c0-0.4,0-0.6,0-0.6l-11,1.4c0,0,0.1,0.7,0.3,2
		c0.1,0.5,0.2,1.2,0.3,1.9c-13.1,5.8-20.9,9.5-20.9,9.5l0.1,0.2c0,0,7.9-3.4,20.9-8.8c0.1,0.8,0.2,1.6,0.2,2.5
		c0,0.3,0.1,0.6,0.1,0.8c0,0.3,0,0.6,0,0.9c0,0.6,0.1,1.2,0.1,1.9c0.1,1.3,0.1,2.6,0.1,4s0,2.9-0.1,4.3c0,0.4,0,0.7,0,1.1
		s0,0.7-0.1,1.1c0,0.1,0,0.1,0,0.2c-0.2,1.2-0.4,2.4-0.6,3.6c-0.3,1.9-0.8,3.9-1.2,5.8c-0.5,2-1,4-1.6,5.9l-0.5,1.5
		c-0.2,0.5-0.3,1-0.5,1.5s-0.3,1-0.5,1.4c-0.2,0.5-0.4,1-0.6,1.4c-0.7,1.9-1.6,3.7-2.5,5.4c-0.4,0.9-0.9,1.7-1.4,2.5s-1,1.6-1.4,2.3
		c-0.5,0.7-1,1.4-1.5,2.1c-0.5,0.7-1,1.3-1.5,1.9c-0.5,0.6-1,1.1-1.5,1.7c-0.2,0.3-0.5,0.5-0.7,0.7s-0.5,0.5-0.7,0.7
		s-0.4,0.4-0.7,0.6c-0.2,0.2-0.4,0.4-0.7,0.5c-0.4,0.3-0.8,0.7-1.2,1C8,156.4,7.4,156.7,7,157s-0.6,0.4-0.6,0.4l0.1,0.2
		c0,0,0.2-0.1,0.6-0.4c0.4-0.3,1-0.6,1.8-1.1c0.4-0.3,0.8-0.6,1.2-0.9c0.2-0.2,0.5-0.3,0.7-0.5s0.5-0.4,0.7-0.6
		c0.2-0.2,0.5-0.4,0.7-0.7c0.3-0.2,0.5-0.5,0.8-0.7c0.5-0.5,1-1,1.6-1.6c0.5-0.6,1.1-1.2,1.6-1.9c0.5-0.7,1.1-1.4,1.6-2.1
		c0.5-0.7,1-1.5,1.6-2.3c0.5-0.8,1-1.6,1.5-2.5c1-1.7,1.9-3.5,2.8-5.4c0.2-0.5,0.4-0.9,0.6-1.4s0.4-1,0.6-1.5s0.4-1,0.6-1.5l0.4-0.9
		c-0.1,0.8-0.3,1.5-0.4,2.2c-0.2,1.1-0.4,2.2-0.6,3.1c-0.2,0.9-0.4,1.7-0.5,2.4s-0.3,1.2-0.3,1.5c-0.1,0.3-0.1,0.5-0.1,0.5l5.1,1.6
		c0,0,0.1-0.2,0.2-0.5c0.1-0.4,0.3-0.9,0.6-1.5c0.2-0.7,0.5-1.5,0.8-2.4s0.6-2,1-3.1c0.4-1.1,0.7-2.4,1.1-3.7
		c0.4-1.3,0.7-2.7,1.1-4.2c0.4-1.4,0.7-3,1.1-4.5c0.3-1.5,0.7-3.1,1-4.7c0.1-0.8,0.3-1.6,0.4-2.4c0.1-0.4,0.1-0.8,0.2-1.2
		c0.1-0.4,0.1-0.8,0.2-1.2c0.2-1.6,0.5-3.1,0.6-4.6c0.2-1.5,0.3-3,0.4-4.4c0-0.7,0.1-1.4,0.1-2.1c0-0.3,0-0.7,0.1-1
		c0-0.3,0-0.6,0-0.9c0-1.2,0-2.4,0.1-3.4c0-1-0.1-1.9-0.1-2.6c0-0.2,0-0.3,0-0.5c2.7-1.1,5.6-2.3,8.6-3.5c1-0.4,2-0.8,3-1.2
		c0.1,0.6,0.1,1.2,0.2,1.9c0,0.3,0.1,0.6,0.1,0.8c0,0.3,0,0.6,0,0.9c0,0.6,0.1,1.2,0.1,1.9c0.1,1.3,0.1,2.6,0.1,4s0,2.9-0.1,4.3
		c0,0.4,0,0.7,0,1.1s0,0.7-0.1,1.1c0,0.8-0.1,1.5-0.1,2.3c-0.1,1.5-0.3,3-0.4,4.5c-0.2,1.5-0.3,3-0.5,4.4s-0.4,2.8-0.6,4.1
		c-0.2,1.3-0.4,2.5-0.6,3.7c-0.2,1.1-0.4,2.2-0.6,3.1c-0.2,0.9-0.4,1.7-0.5,2.4s-0.3,1.2-0.3,1.5c-0.1,0.3-0.1,0.5-0.1,0.5l5.1,1.6
		c0,0,0.1-0.2,0.2-0.5c0.1-0.4,0.3-0.9,0.6-1.5c0.2-0.7,0.5-1.5,0.8-2.4s0.6-2,1-3.1s0.7-2.4,1.1-3.7s0.7-2.7,1.1-4.2
		c0.2-0.6,0.3-1.3,0.5-2c0,0.1,0,0.2,0,0.3c0,0.3,0.1,0.5,0.1,0.5h0.2c0,0,0-0.2,0-0.5c0-0.1,0-0.3,0-0.5s0-0.5,0-0.7
		c0-0.1,0-0.2,0-0.3c0.1-0.4,0.2-0.8,0.3-1.2c0.3-1.2,0.5-2.5,0.8-3.8c0.2-0.7,0.5-1.4,0.7-2.1c0.4-1,0.8-2.1,1.3-3.2
		c0.2-0.6,0.5-1.1,0.7-1.7c0.3-0.6,0.5-1.1,0.8-1.7c0.5-1.1,1.1-2.3,1.7-3.4c2.4-4.5,5-8.9,7-12.2c0.6-1,1.2-1.8,1.6-2.6
		c0.1,0.7,0.2,1.5,0.2,2.4c0,0.3,0.1,0.6,0.1,0.8c0,0.3,0,0.6,0,0.9c0,0.6,0.1,1.2,0.1,1.9c0.1,1.3,0.1,2.6,0.1,4s0,2.9-0.1,4.3
		c0,0.4,0,0.7,0,1.1s0,0.7-0.1,1.1c0,0.8-0.1,1.5-0.1,2.3c-0.1,1.5-0.3,3-0.4,4.5c-0.2,1.5-0.3,3-0.5,4.4s-0.4,2.8-0.6,4.1
		s-0.4,2.5-0.6,3.7c-0.2,1.1-0.4,2.2-0.6,3.1s-0.4,1.7-0.5,2.4s-0.3,1.2-0.3,1.5c-0.1,0.3-0.1,0.5-0.1,0.5l5.1,1.6
		c0,0,0.1-0.2,0.2-0.5c0.1-0.4,0.3-0.9,0.6-1.5c0.2-0.7,0.5-1.5,0.8-2.4s0.6-2,1-3.1s0.7-2.4,1.1-3.7s0.7-2.7,1.1-4.2
		c0.4-1.4,0.7-3,1.1-4.5c0.3-1.5,0.7-3.1,1-4.7c0.1-0.8,0.3-1.6,0.4-2.4c0.1-0.4,0.1-0.8,0.2-1.2s0.1-0.8,0.2-1.2
		c0.2-1.6,0.5-3.1,0.6-4.6c0.2-1.5,0.3-3,0.4-4.4c0-0.7,0.1-1.4,0.1-2.1c0-0.3,0-0.7,0.1-1c0-0.3,0-0.6,0-0.9c0-1.2,0-2.4,0.1-3.4
		c0-1-0.1-1.9-0.1-2.6c-0.1-1.5-0.1-2.3-0.1-2.3l-0.4,0.1c2.1-0.8,4.2-1.6,6.3-2.4c0.7-0.3,1.5-0.6,2.2-0.8c-0.1,0-0.1,0.1-0.2,0.1
		c-0.3,0.2-0.6,0.4-0.9,0.5c-0.3,0.2-0.6,0.3-0.9,0.5c-0.3,0.1-0.5,0.3-0.8,0.4s-0.5,0.2-0.8,0.4c-0.5,0.2-1,0.4-1.4,0.6
		c-0.8,0.3-1.5,0.5-2,0.7s-0.7,0.2-0.7,0.2l0.1,0.2c0,0,0.3-0.1,0.7-0.2c0.5-0.1,1.2-0.3,2-0.6c0.4-0.2,0.9-0.3,1.4-0.5
		c0.3-0.1,0.5-0.2,0.8-0.3s0.5-0.3,0.8-0.4s0.6-0.3,0.9-0.4s0.6-0.3,0.9-0.5c0.6-0.4,1.3-0.7,2-1.1c0.4-0.3,0.8-0.5,1.2-0.8
		c2-0.8,4-1.5,6-2.3c1.5-0.6,3-1.1,4.4-1.7c-0.2,0.2-0.4,0.4-0.6,0.6c-0.4,0.3-0.7,0.6-1,1s-0.7,0.7-1,1.1c-0.6,0.8-1.3,1.5-1.9,2.4
		c-1.2,1.6-2.3,3.5-3.3,5.3c-0.2,0.5-0.5,1-0.7,1.4L95.1,81l-0.3,0.7c-0.2,0.5-0.4,1-0.6,1.5s-0.4,1-0.5,1.5l-0.5,1.5
		c-0.2,0.5-0.3,1-0.4,1.5s-0.3,1-0.4,1.5s-0.2,1-0.3,1.5c-0.2,1-0.5,2-0.6,3c-0.1,0.5-0.2,1-0.3,1.5c-0.1,0.5-0.2,1-0.2,1.5
		c-0.1,1-0.2,1.9-0.4,2.8c-0.1,0.9-0.2,1.8-0.2,2.7c-0.2,1.8-0.2,3.4-0.3,5c0,0.8,0,1.5,0,2.2s0,1.4,0,2c0,1.3,0,2.3,0.1,3.2
		c0.1,1.8,0.1,2.8,0.1,2.8l11.1-1.1c0,0,0-0.2-0.1-0.6l0.5,0.3c0,0,0.3-0.6,0.9-1.6s1.4-2.5,2.4-4.2c1.9-3.5,4.3-8.3,6.5-13.2
		c0.5-1.1,0.9-2.1,1.3-3.2c-0.2,0.9-0.5,1.9-0.7,2.8c-0.3,1.1-0.5,2.1-0.8,3.1s-0.5,1.9-0.8,2.8s-0.5,1.7-0.7,2.5s-0.4,1.5-0.7,2.2
		c-0.2,0.7-0.4,1.3-0.6,1.9c-0.4,1.1-0.7,2-0.9,2.6c-0.1,0.3-0.2,0.5-0.2,0.7c-0.1,0.2-0.1,0.2-0.1,0.2l4.3,1.8
		c-0.5,0.2-1.1,0.4-1.6,0.6c-4,1.6-7.9,3.2-11.7,4.8c-3.9,1.6-7.7,3.2-11.4,4.7c-7.5,3.1-14.7,6.2-21.6,9.1
		c-6.8,2.9-13.3,5.7-19.3,8.3c-23.9,9.9-39.6,17.2-39.6,17.2l0.1,0.2c0,0,15.9-6.9,40-16.6c6-2.4,12.5-5,19.5-7.8
		c6.9-2.7,14.2-5.6,21.8-8.5c3.8-1.5,7.6-2.9,11.5-4.4s7.9-3,11.9-4.4c8-3,16.1-5.9,24.3-8.8c4.1-1.4,8.2-2.9,12.2-4.3
		c4.1-1.4,8.1-2.8,12.2-4.2c0.9-0.3,1.7-0.6,2.6-0.9c-0.4,0.4-0.7,0.8-1.1,1.2c-1.5,1.6-2.4,2.6-2.4,2.6l0.1,0.1
		c0,0,0.9-0.9,2.5-2.5c0.5-0.5,1.1-1.1,1.7-1.7c6.9-2.3,13.7-4.6,20.3-6.6c1.9-0.6,3.8-1.2,5.7-1.8s3.8-1.2,5.6-1.7
		c0.9-0.3,1.8-0.6,2.8-0.8c-0.7,0.8-1.4,1.6-2.1,2.4c-0.7,0.9-1.5,1.7-2.2,2.5c-0.8,0.8-1.5,1.6-2.3,2.4c-1.5,1.6-3.1,3.1-4.6,4.6
		c-1.6,1.5-3.1,2.9-4.6,4.3c-1.6,1.4-3.1,2.7-4.6,4c-1.5,1.2-3,2.4-4.5,3.6c-0.7,0.6-1.5,1.1-2.2,1.6s-1.4,1.1-2.1,1.6
		c-0.7,0.5-1.4,1-2,1.5c-0.7,0.5-1.4,0.9-2,1.4c-1.3,0.9-2.5,1.7-3.7,2.5c-1.2,0.7-2.3,1.4-3.3,2.1c-0.5,0.3-1,0.6-1.5,0.9
		c-0.2,0.1-0.5,0.3-0.7,0.4s-0.5,0.3-0.7,0.4c-3.5,2-5.5,3.1-5.5,3.1l0.1,0.2c0,0,2.1-1,5.7-2.7c0.2-0.1,0.5-0.2,0.7-0.3
		s0.5-0.3,0.7-0.4c0.5-0.3,1-0.5,1.6-0.8c1.1-0.6,2.2-1.2,3.5-1.8c1.2-0.7,2.5-1.5,3.9-2.2c0.7-0.4,1.4-0.8,2.1-1.2
		c0.7-0.4,1.4-0.9,2.2-1.4c0.7-0.5,1.5-0.9,2.2-1.4c0.8-0.5,1.6-1,2.3-1.5c1.5-1.1,3.1-2.2,4.8-3.3c1.6-1.2,3.2-2.4,4.9-3.7
		c1.6-1.3,3.3-2.7,5-4.1c1.6-1.4,3.3-2.9,5-4.4c0.8-0.8,1.6-1.6,2.5-2.3c0.8-0.8,1.7-1.6,2.5-2.4c1.6-1.6,3.3-3.3,4.8-5
		c0.8-0.9,1.6-1.7,2.4-2.6l0.2-0.2c1.7-0.5,3.4-1,5.1-1.5c1.7-0.5,3.4-1,5.1-1.4c1.7-0.5,3.3-0.9,4.9-1.4c1.6-0.4,3.2-0.9,4.8-1.3
		c3.1-0.8,6.1-1.6,9-2.3c1.4-0.3,2.8-0.7,4.2-1c0.7-0.2,1.3-0.3,2-0.5c0.7-0.1,1.3-0.3,1.9-0.4c2.6-0.6,4.9-1.1,7.2-1.6
		c2.2-0.4,4.3-0.9,6.1-1.2c1.8-0.4,3.5-0.7,4.9-0.9s2.6-0.5,3.6-0.6c2-0.3,3-0.5,3-0.5l-1.3-7.7C266.6,63.2,265.5,63.4,263.5,63.8z
		 M67.4,83.8c-1.8,3.5-4.1,8.1-6.1,12.9c-0.5,1.2-1,2.4-1.4,3.6c-0.2,0.6-0.5,1.2-0.7,1.8c-0.1,0.3-0.2,0.7-0.3,1
		c0.2-1.3,0.4-2.5,0.5-3.8c0.2-1.5,0.3-3,0.4-4.4c0-0.7,0.1-1.4,0.1-2.1c0-0.3,0-0.7,0.1-1c0-0.3,0-0.6,0-0.9c0-1.2,0-2.4,0.1-3.4
		c0-0.9-0.1-1.8-0.1-2.5c2-0.8,4-1.6,6-2.4c0.8-0.3,1.7-0.7,2.6-1C68.2,82.3,67.9,83,67.4,83.8z M216.3,30.4
		c1.7-0.5,3.3-0.9,4.9-1.4c1.6-0.4,3.2-0.9,4.8-1.3c1.3-0.3,2.5-0.7,3.7-1c0,0.2-0.1,0.4-0.1,0.6c-0.1,0.3-0.1,0.7-0.2,1
		c-0.1,0.3-0.2,0.7-0.3,1c-0.2,0.7-0.4,1.4-0.6,2.1c-0.4,1.5-0.9,3-1.4,4.6c-0.2,0.6-0.4,1.2-0.6,1.9c-0.4-0.4-0.8-0.8-1.2-1.2
		c-1.2-1.1-2.5-2.2-3.8-3.1c-0.6-0.4-1.3-0.9-1.9-1.3c-0.3-0.2-0.6-0.4-0.9-0.6c-0.2-0.1-0.3-0.2-0.5-0.3c-0.2-0.1-0.3-0.2-0.5-0.2
		c-0.6-0.3-1.2-0.6-1.8-0.9c0,0,0,0-0.1,0C216,30.5,216.1,30.4,216.3,30.4z M147.1,47c0.3-0.4,0.7-0.8,1-1.2s0.6-0.8,1-1.2
		c0.3-0.4,0.7-0.8,1-1.2l0.9-1.3c1.2-1.7,2.4-3.5,3.5-5.2c1.1-1.8,2.1-3.5,3.1-5.2s1.8-3.4,2.7-5c0.3-0.7,0.7-1.4,1-2
		c0,0.5,0,1,0,1.5c0,1,0,2.1,0,3.1c0,0.3,0,0.5,0,0.8s0,0.6,0,0.8c0,0.6,0,1.1-0.1,1.7c0,1.2-0.1,2.3-0.1,3.5c0,0.6,0,1.2-0.1,1.8
		c0,0.6-0.1,1.2-0.1,1.9c-0.1,1-0.1,1.9-0.2,2.9c-0.8,0.3-1.5,0.5-2.3,0.8c-4,1.5-8,3-12,4.5C146.5,47.7,146.8,47.4,147.1,47z
		 M127.1,59.5c2.8-1,5.6-2,8.4-3c0.1,0,0.2-0.1,0.2-0.1c-0.6,0.4-1.1,0.8-1.6,1.2c-0.6,0.4-1.3,0.8-1.9,1.2
		c-0.3,0.2-0.6,0.4-0.9,0.5c-0.3,0.2-0.6,0.3-0.9,0.5c-0.3,0.1-0.5,0.3-0.8,0.4s-0.5,0.2-0.8,0.4c-0.5,0.2-1,0.4-1.4,0.6
		c-0.3,0.1-0.5,0.2-0.7,0.3C126.9,60.8,127,60.1,127.1,59.5z M100.8,66c1.3-1.3,2.7-2.8,4-4.3c0.3-0.4,0.7-0.8,1-1.2s0.6-0.8,1-1.2
		c0.3-0.4,0.7-0.8,1-1.2l0.9-1.3c1.2-1.7,2.4-3.5,3.5-5.2c1.1-1.8,2.1-3.5,3.1-5.2s1.8-3.4,2.7-5c0.3-0.7,0.7-1.4,1-2
		c0,0.5,0,1,0,1.5c0,1,0,2.1,0,3.1c0,0.3,0,0.5,0,0.8s0,0.6,0,0.8c0,0.6,0,1.1-0.1,1.7c0,1.2-0.1,2.3-0.1,3.5c0,0.6,0,1.2-0.1,1.8
		c0,0.6-0.1,1.2-0.1,1.9c-0.1,1.3-0.2,2.5-0.3,3.8c0,0.3,0,0.5-0.1,0.8c-2.7,1.1-5.4,2.1-8,3.2C106.9,63.5,103.8,64.7,100.8,66z
		 M112.2,90.6c-0.3,0.6-0.6,1.2-0.8,1.7c-0.6,1.2-1.2,2.3-1.8,3.5c-2.5,4.7-5.3,9.1-7.4,12.5c-0.6,1-1.2,1.8-1.7,2.6
		c0-0.1,0-0.2,0-0.4c-0.1-0.6-0.1-1.2-0.2-1.8s-0.1-1.3-0.2-2c-0.1-1.4-0.2-2.9-0.2-4.5c0-0.8,0-1.6,0-2.4s0.1-1.7,0.1-2.5
		c0-0.4,0-0.9,0.1-1.3c0-0.4,0.1-0.9,0.1-1.3c0-0.9,0.2-1.8,0.3-2.6c0.1-0.4,0.1-0.9,0.2-1.3s0.2-0.9,0.2-1.3
		c0.1-0.4,0.2-0.9,0.2-1.3l0.3-1.3c0.4-1.7,1-3.4,1.6-5c0.7-1.6,1.4-3.1,2.2-4.5c0.4-0.7,0.9-1.3,1.3-2c0.2-0.3,0.5-0.6,0.7-0.9
		s0.5-0.6,0.7-0.8c0.5-0.6,1-1,1.5-1.5c0.5-0.4,1-0.9,1.5-1.3c1-0.8,2-1.4,2.9-1.8c0.9-0.5,1.8-0.8,2.5-1c0.3-0.1,0.6-0.2,0.9-0.3
		c0,0.2,0,0.4-0.1,0.6l-0.3,2c-0.2,1.3-0.4,2.7-0.6,4l-0.1,1l-0.2,1c-0.1,0.7-0.2,1.3-0.3,2c-0.2,1.3-0.4,2.6-0.7,3.9
		c-0.2,1.3-0.5,2.5-0.7,3.8c-0.4,1-0.8,2-1.3,3.1C112.8,89.4,112.5,90,112.2,90.6z M154.3,81.6c-0.3,1.1-0.5,2.1-0.8,3.1
		s-0.5,1.9-0.8,2.8s-0.5,1.7-0.7,2.5s-0.4,1.5-0.7,2.2c-0.2,0.7-0.4,1.3-0.6,1.9c-0.4,1.1-0.7,2-0.9,2.6c-0.1,0.3-0.2,0.5-0.2,0.7
		c-0.1,0.2-0.1,0.2-0.1,0.2l2,0.8c-1.8,0.7-3.6,1.4-5.4,2c-4,1.5-8.1,3.1-12.1,4.7c-7.2,2.8-14.5,5.7-21.6,8.5
		c0-0.1,0.1-0.2,0.1-0.3c0.3-0.6,0.6-1.5,1.1-2.7c0.2-0.6,0.5-1.2,0.7-1.9c0.3-0.7,0.5-1.4,0.8-2.2s0.6-1.6,0.9-2.5s0.6-1.8,1-2.8
		c0.3-1,0.7-2,1-3.1s0.7-2.2,1-3.3s0.7-2.3,1-3.5c0.2-0.6,0.4-1.2,0.5-1.8c0.2-0.6,0.3-1.2,0.5-1.9c0.3-1.3,0.7-2.5,1-3.8
		s0.6-2.6,0.9-4c0.2-0.7,0.3-1.3,0.5-2l0.2-1l0.2-1c0.3-1.4,0.6-2.7,0.8-4.1l0.4-2c0.1-0.7,0.2-1.4,0.4-2.1c0.2-1.4,0.5-2.7,0.7-4.1
		c0.1-0.5,0.2-1,0.3-1.5c0.3-0.1,0.6-0.2,0.9-0.3c0.4-0.2,0.9-0.3,1.4-0.5c0.3-0.1,0.5-0.2,0.8-0.3s0.5-0.3,0.8-0.4s0.6-0.3,0.9-0.4
		c0.3-0.1,0.6-0.3,0.9-0.5c0.6-0.4,1.3-0.7,2-1.1s1.3-0.9,2.1-1.4c0.6-0.5,1.3-0.9,1.9-1.4c3.1-1.1,6.1-2.2,9.2-3.2h0.1
		c-0.1,0-0.1,0.1-0.2,0.1c-0.7,0.6-1.4,1.1-2.1,1.8c-0.4,0.3-0.7,0.6-1,1s-0.7,0.7-1,1.1c-0.6,0.8-1.3,1.5-1.9,2.4
		c-1.2,1.6-2.3,3.5-3.3,5.3c-0.2,0.5-0.5,1-0.7,1.4l-0.3,0.7l-0.3,0.7c-0.2,0.5-0.4,1-0.6,1.5c-0.2,0.5-0.4,1-0.5,1.5l-0.5,1.5
		c-0.2,0.5-0.3,1-0.4,1.5c-0.1,0.5-0.3,1-0.4,1.5c-0.1,0.5-0.2,1-0.3,1.5c-0.2,1-0.5,2-0.6,3c-0.1,0.5-0.2,1-0.3,1.5s-0.2,1-0.2,1.5
		c-0.1,1-0.2,1.9-0.4,2.8c-0.1,0.9-0.2,1.8-0.2,2.7c-0.2,1.8-0.2,3.4-0.3,5c0,0.8,0,1.5,0,2.2s0,1.4,0,2c0,1.3,0,2.3,0.1,3.2
		c0.1,1.8,0.1,2.8,0.1,2.8l11.1-1.1c0,0,0-0.2-0.1-0.6l0.5,0.3c0,0,0.3-0.6,0.9-1.6c0.6-1,1.4-2.5,2.4-4.2c1.9-3.5,4.3-8.3,6.5-13.2
		c0.5-1.1,0.9-2.1,1.3-3.2C154.7,79.7,154.5,80.7,154.3,81.6z M154.6,75.9c-0.3,0.6-0.6,1.2-0.8,1.7c-0.6,1.2-1.2,2.3-1.8,3.5
		c-2.5,4.7-5.3,9.1-7.4,12.5c-0.6,1-1.2,1.8-1.7,2.6c0-0.1,0-0.2,0-0.4c-0.1-0.6-0.1-1.2-0.2-1.8c-0.1-0.6-0.1-1.3-0.2-2
		c-0.1-1.4-0.2-2.9-0.2-4.5c0-0.8,0-1.6,0-2.4s0.1-1.7,0.1-2.5c0-0.4,0-0.9,0.1-1.3c0-0.4,0.1-0.9,0.1-1.3c0-0.9,0.2-1.8,0.3-2.6
		c0.1-0.4,0.1-0.9,0.2-1.3c0.1-0.4,0.2-0.9,0.2-1.3c0.1-0.4,0.2-0.9,0.2-1.3l0.3-1.3c0.1-0.4,0.2-0.9,0.3-1.3l0.4-1.3l0.2-0.6
		l0.2-0.6c0.1-0.4,0.3-0.8,0.4-1.2c0.7-1.6,1.4-3.1,2.2-4.5c0.4-0.7,0.9-1.3,1.3-2c0.2-0.3,0.5-0.6,0.7-0.9s0.5-0.6,0.7-0.8
		c0.5-0.6,1-1,1.5-1.5c0.5-0.4,1-0.9,1.5-1.3c1-0.8,2-1.4,2.9-1.8c0.9-0.5,1.8-0.8,2.5-1c0.3-0.1,0.6-0.2,0.9-0.3
		c0,0.2,0,0.4-0.1,0.6l-0.3,2c-0.2,1.3-0.4,2.7-0.6,4l-0.1,1l-0.2,1c-0.1,0.7-0.2,1.3-0.3,2c-0.2,1.3-0.4,2.6-0.7,3.9
		c-0.2,1.3-0.5,2.5-0.7,3.8c-0.4,1-0.8,2-1.3,3.1C155.1,74.8,154.8,75.3,154.6,75.9z M170.9,91.2c0.4-0.5,0.9-1,1.4-1.5
		c0.3-0.3,0.5-0.6,0.8-0.8c0,0.4,0,0.6,0,0.6l3.7-0.4C174.9,89.8,172.9,90.5,170.9,91.2z M179,50.8c-0.2,0.5-0.5,1-0.7,1.4l-0.3,0.7
		l-0.3,0.7c-0.2,0.5-0.4,1-0.6,1.5c-0.2,0.5-0.4,1-0.5,1.5l-0.5,1.5c-0.2,0.5-0.3,1-0.4,1.5c-0.1,0.5-0.3,1-0.4,1.5
		c-0.1,0.5-0.2,1-0.3,1.5c-0.2,1-0.5,2-0.6,3c-0.1,0.5-0.2,1-0.3,1.5s-0.2,1-0.2,1.5c-0.1,1-0.2,1.9-0.4,2.8
		c-0.1,0.9-0.2,1.8-0.2,2.7c-0.2,1.8-0.2,3.4-0.3,5c0,0.8,0,1.5,0,2.2s0,1.4,0,2c0,1.3,0,2.3,0.1,3.2c0,0.2,0,0.5,0,0.7
		c-0.5,0.6-1,1.2-1.5,1.7c-0.8,1-1.6,1.9-2.3,2.8c-3.6,1.3-7.3,2.6-11,4c-0.9,0.3-1.7,0.6-2.6,0.9c0.1-0.3,0.2-0.5,0.3-0.8
		c0.2-0.6,0.5-1.2,0.7-1.9c0.3-0.7,0.5-1.4,0.8-2.2s0.6-1.6,0.9-2.5c0.3-0.9,0.6-1.8,1-2.8c0.3-1,0.7-2,1-3.1s0.7-2.2,1-3.3
		s0.7-2.3,1-3.5c0.2-0.6,0.4-1.2,0.5-1.8c0.2-0.6,0.3-1.2,0.5-1.9c0.3-1.3,0.7-2.5,1-3.8s0.6-2.6,0.9-4c0.2-0.7,0.3-1.3,0.5-2l0.2-1
		l0.2-1c0.3-1.4,0.6-2.7,0.8-4.1l0.4-2c0.1-0.7,0.2-1.4,0.4-2.1c0.2-1.4,0.5-2.7,0.7-4.1c0.2-1.3,0.4-2.6,0.6-3.9
		c4.8-1.6,9.5-3.1,14.2-4.6c1.9-0.6,3.8-1.2,5.7-1.8c0.2-0.1,0.4-0.1,0.7-0.2c-0.5,0.3-1.1,0.7-1.6,1.1c-0.7,0.6-1.4,1.1-2.1,1.8
		c-0.4,0.3-0.7,0.6-1,1s-0.7,0.7-1,1.1c-0.6,0.8-1.3,1.5-1.9,2.4C181.1,47.1,180,48.9,179,50.8z M183,72.1c0-0.8,0.1-1.7,0.1-2.5
		c0-0.4,0-0.9,0.1-1.3c0-0.4,0.1-0.9,0.1-1.3c0-0.9,0.2-1.8,0.3-2.6c0.1-0.4,0.1-0.9,0.2-1.3c0.1-0.4,0.2-0.9,0.2-1.3
		c0.1-0.4,0.2-0.9,0.2-1.3l0.3-1.3c0.4-1.7,1-3.4,1.6-5c0.7-1.6,1.4-3.1,2.2-4.5c0.4-0.7,0.9-1.3,1.3-2c0.2-0.3,0.5-0.6,0.7-0.9
		s0.5-0.6,0.7-0.8c0.5-0.6,1-1,1.5-1.5c0.5-0.4,1-0.9,1.5-1.3c1-0.8,2-1.4,2.9-1.8c0.4-0.2,0.8-0.4,1.2-0.5c0,0.1,0,0.2,0,0.3
		c-0.1,0.3-0.1,0.7-0.2,1.1c-0.2,1.5-0.6,3.1-1,4.9c-0.6,1.8-1.1,3.7-2,5.7c-0.2,0.5-0.4,1-0.6,1.5c-0.2,0.5-0.4,1-0.7,1.5
		c-0.5,1-1,2.1-1.5,3.1c-0.3,0.5-0.5,1.1-0.8,1.6s-0.6,1.1-0.9,1.6c-0.6,1.1-1.2,2.1-1.8,3.2c-0.3,0.6-0.6,1.1-1,1.6
		c-0.3,0.5-0.7,1.1-1,1.6c-0.7,1.1-1.3,2.1-2,3.2c-0.6,0.8-1.2,1.7-1.7,2.5C183,73.5,183,72.8,183,72.1z M183.6,84
		c0-0.4-0.1-0.8-0.1-1.2c-0.1-0.6-0.1-1.2-0.2-1.8c-0.1-0.6-0.1-1.3-0.2-2c0-0.7-0.1-1.4-0.1-2.1c1.1-1.4,2.2-2.8,3.2-4.2
		c0.7-1.1,1.5-2.1,2.2-3.2c0.4-0.5,0.7-1.1,1.1-1.6c0.4-0.5,0.7-1,1.1-1.6c0.7-1.1,1.3-2.2,2-3.2c0.3-0.5,0.6-1.1,1-1.6
		c0.3-0.5,0.6-1.1,0.9-1.6c0.6-1.1,1.1-2.1,1.7-3.2c0.3-0.5,0.5-1,0.7-1.6c0.2-0.5,0.5-1,0.7-1.6c1-2,1.6-4.1,2.3-5.9
		c0.5-1.9,1.1-3.6,1.3-5.3c0.1-0.4,0.2-0.8,0.2-1.2c0.1-0.4,0.1-0.8,0.1-1.1c0.1-0.7,0.2-1.4,0.2-2s0-1.1,0-1.6s-0.1-0.9-0.1-1.3
		c0-0.3-0.1-0.6-0.1-0.8c1.5-0.4,3-0.9,4.4-1.3c0.8-0.2,1.5-0.4,2.3-0.7l-0.9,6.6c0,0,0.1,0,0.4,0c0,0,0,0,0,0.1
		c-0.1,0.3-0.1,0.7-0.2,1c-0.1,0.3-0.1,0.7-0.2,1c-0.3,1.4-0.6,3-1.1,4.6c-0.2,0.8-0.5,1.6-0.7,2.5c-0.3,0.8-0.5,1.7-0.8,2.5
		s-0.6,1.7-1,2.6s-0.7,1.7-1.1,2.6c-0.4,0.9-0.8,1.7-1.2,2.6c-0.2,0.4-0.4,0.9-0.6,1.3c-0.2,0.4-0.4,0.9-0.7,1.3
		c-0.9,1.7-1.8,3.4-2.8,5s-2,3.2-3,4.7s-2.1,2.9-3,4.2c-1,1.3-2,2.5-2.9,3.6C186.5,81,184.8,82.8,183.6,84
		C183.7,84,183.6,84,183.6,84z M210,71.5c-0.6,0.9-1.2,1.9-1.9,2.8c-1.3,1.8-2.5,3.7-3.9,5.4h-0.1c-1.8,0.6-3.6,1.2-5.4,1.7
		c-1.8,0.6-3.7,1.2-5.5,1.9c-1.9,0.6-3.7,1.2-5.6,1.9c-0.2,0.1-0.5,0.2-0.7,0.2c1.1-1.2,2.4-2.9,3.9-4.8c0.9-1.2,1.8-2.5,2.8-3.9
		c0.9-1.4,1.9-2.9,2.9-4.5s1.9-3.2,2.8-4.9c0.9-1.7,1.8-3.5,2.6-5.3c0.2-0.4,0.4-0.9,0.6-1.3c0.2-0.5,0.4-0.9,0.6-1.4
		c0.4-0.9,0.7-1.8,1.1-2.7c0.4-0.9,0.6-1.8,1-2.7c0.3-0.9,0.6-1.8,0.8-2.7c0.3-0.9,0.5-1.8,0.7-2.6c0.2-0.9,0.4-1.7,0.6-2.5
		c0.3-1.7,0.6-3.2,0.8-4.7c0.1-0.4,0.1-0.7,0.2-1.1c0-0.3,0.1-0.7,0.1-1c0,0,0,0,0-0.1c0.2,0,0.4,0,0.7,0.1s0.6,0.1,0.9,0.2
		c0.3,0.1,0.7,0.1,1.1,0.2c0.4,0.1,0.8,0.2,1.2,0.3s0.8,0.3,1.3,0.5c0.1,0,0.2,0.1,0.3,0.1c0.1,0.1,0.2,0.1,0.3,0.2
		c0.2,0.1,0.5,0.2,0.7,0.3c0.5,0.2,1,0.5,1.5,0.7c1,0.5,2.1,1.2,3.1,2c0.5,0.4,1,0.8,1.6,1.2c0.5,0.4,1,0.9,1.6,1.4
		c0.2,0.2,0.3,0.3,0.5,0.5c-1.4,3.3-3,6.8-4.8,10.3c-1,1.9-2,3.8-3.1,5.7c-0.5,0.9-1.1,1.9-1.6,2.9c-0.6,0.9-1.1,1.9-1.7,2.8
		C211.2,69.7,210.6,70.6,210,71.5z M237.4,69.9c-1.4,0.4-2.8,0.8-4.2,1.1c-2.9,0.8-5.9,1.7-9,2.6c-1.6,0.5-3.2,0.9-4.8,1.4
		s-3.3,1-5,1.5c-0.4,0.1-0.9,0.3-1.3,0.4c0.5-0.7,1-1.4,1.6-2.1c0.7-0.9,1.4-1.8,2.1-2.8c0.7-0.9,1.3-1.9,2-2.8s1.3-1.9,1.9-2.8
		c1.3-1.9,2.4-3.8,3.6-5.7c1.5-2.5,2.9-5,4.2-7.5c0.4,0.5,0.8,1,1.1,1.6c0.4,0.6,0.8,1.2,1.2,1.8c0.8,1.2,1.5,2.3,2.2,3.5
		c0.7,1.1,1.2,2.2,1.8,3.2c0.5,1,1,2,1.4,2.8s0.7,1.6,1,2.2s0.5,1.1,0.6,1.4c0,0.1,0,0.1,0.1,0.2C237.7,69.8,237.6,69.8,237.4,69.9z
		"/>
</g>
</svg>
