<?xml version="1.0" encoding="utf-8"?>
<!-- Generator: Adobe Illustrator 19.2.0, SVG Export Plug-In . SVG Version: 6.00 Build 0)  -->
<svg version="1.1" id="Layer_1" xmlns="http://www.w3.org/2000/svg" xmlns:xlink="http://www.w3.org/1999/xlink" x="0px" y="0px"
	 viewBox="0 0 512 512" style="enable-background:new 0 0 512 512;" xml:space="preserve">
<g>
	<path d="M256.7,98.6c51.4,0,57.4,0.2,77.7,1.1c18.8,0.9,28.9,4,35.7,6.6c9,3.5,15.4,7.7,22.1,14.4c6.7,6.7,10.9,13.1,14.4,22.1
		c2.6,6.8,5.8,17,6.6,35.7c0.9,20.3,1.1,26.4,1.1,77.7c0,51.4-0.2,57.4-1.1,77.7c-0.9,18.8-4,28.9-6.6,35.7
		c-3.5,9-7.7,15.4-14.4,22.1c-6.7,6.7-13.1,10.9-22.1,14.4c-6.8,2.6-17,5.8-35.7,6.6c-20.3,0.9-26.4,1.1-77.7,1.1
		c-51.4,0-57.4-0.2-77.7-1.1c-18.8-0.9-28.9-4-35.7-6.6c-9-3.5-15.4-7.7-22.1-14.4s-10.9-13.1-14.4-22.1c-2.6-6.8-5.8-17-6.6-35.7
		c-0.9-20.3-1.1-26.4-1.1-77.7c0-51.4,0.2-57.4,1.1-77.7c0.9-18.8,4-28.9,6.6-35.7c3.5-9,7.7-15.4,14.4-22.1
		c6.7-6.7,13.1-10.9,22.1-14.4c6.8-2.6,17-5.8,35.7-6.6C199.2,98.8,205.3,98.6,256.7,98.6 M256.7,63.9c-52.2,0-58.8,0.2-79.3,1.2
		c-20.5,0.9-34.5,4.2-46.7,8.9c-12.6,4.9-23.4,11.5-34.1,22.2s-17.3,21.4-22.2,34.1c-4.8,12.2-8,26.2-8.9,46.7
		c-0.9,20.5-1.2,27.1-1.2,79.3s0.2,58.8,1.2,79.3c0.9,20.5,4.2,34.5,8.9,46.7c4.9,12.6,11.5,23.4,22.2,34.1
		c10.7,10.6,21.4,17.2,34.1,22.1c12.2,4.8,26.2,8,46.7,8.9s27.1,1.2,79.3,1.2s58.8-0.2,79.3-1.2c20.5-0.9,34.5-4.2,46.7-8.9
		c12.6-4.9,23.4-11.5,34.1-22.2s17.3-21.4,22.2-34.1c4.8-12.2,8-26.2,8.9-46.7s1.2-27.1,1.2-79.3s-0.2-58.8-1.2-79.3
		c-0.9-20.5-4.2-34.5-8.9-46.7c-4.9-12.6-11.5-23.4-22.2-34.1c-10.7-10.7-21.4-17.3-34.1-22.2c-12.2-4.8-26.2-8-46.7-8.9
		C315.4,64.1,308.9,63.9,256.7,63.9"/>
	<path d="M256.7,157.5c-54.5,0-98.8,44.2-98.8,98.8c0,54.5,44.2,98.8,98.8,98.8c54.5,0,98.8-44.2,98.8-98.8
		C355.4,201.7,311.2,157.5,256.7,157.5 M256.7,320.4c-35.4,0-64.1-28.7-64.1-64.1s28.7-64.1,64.1-64.1s64.1,28.7,64.1,64.1
		S292.1,320.4,256.7,320.4"/>
	<path d="M382.4,153.6c0,12.7-10.3,23.1-23.1,23.1c-12.7,0-23.1-10.3-23.1-23.1c0-12.7,10.3-23.1,23.1-23.1S382.4,140.8,382.4,153.6
		"/>
</g>
</svg>
